# xmcd
#
# Track frame offsets: 
#        150
#        18608
#        35708
#        54634
#        68215
#        85309
#        104330
#        123164
#        144566
#        158916
#        174684
#        190574
#
# Disc length: 2765 seconds
#
# Revision: 0
# Processed by: cddbd v1.5.1PL0 Copyright (c) Steve Scherf et al.
# Submitted via: ExactAudioCopy v0.95a5
#
DISCID=a50acb0c
DTITLE=John Berry - Better Than A Biscuit
DYEAR=1900
DGENRE=Country
TTITLE0=1 - Better Than A Biscuit
TTITLE1=2 - Over My Shoulder
TTITLE2=3 - I Got To Know
TTITLE3=4 - Somebody Cares
TTITLE4=5 - I Don't Know
TTITLE5=6 - Right Behind The Rain
TTITLE6=7 - In The Eyes Of A Woman
TTITLE7=8 - Mr. Jones
TTITLE8=9 - Crazy For The Girl
TTITLE9=10 - We Can't Make Love
TTITLE10=11 - I'd Do That
TTITLE11=12 - Over My Shoulder
EXTD=
EXTT0=
EXTT1=
EXTT2=
EXTT3=
EXTT4=
EXTT5=
EXTT6=
EXTT7=
EXTT8=
EXTT9=
EXTT10=
EXTT11=
PLAYORDER=
